<?xml version="1.0" standalone="no"?>
<!DOCTYPE svg PUBLIC "-//W3C//DTD SVG 20010904//EN"
 "http://www.w3.org/TR/2001/REC-SVG-20010904/DTD/svg10.dtd">
<svg version="1.0" xmlns="http://www.w3.org/2000/svg"
 width="500.000000pt" height="500.000000pt" viewBox="0 0 500.000000 500.000000"
 preserveAspectRatio="xMidYMid meet">

<g transform="translate(0.000000,500.000000) scale(0.100000,-0.100000)"
fill="#499a09" stroke="none">
<path d="M2200 4965 c-130 -15 -317 -54 -435 -92 -573 -183 -1021 -522 -1362
-1033 -63 -94 -207 -389 -251 -515 -112 -321 -161 -678 -135 -990 17 -219 30
-300 68 -449 207 -816 789 -1456 1585 -1742 126 -45 300 -89 435 -109 61 -8
132 -20 158 -25 63 -13 411 -13 474 0 26 5 98 17 158 25 665 98 1291 499 1674
1071 185 278 293 535 371 889 34 153 58 457 48 606 -25 371 -96 658 -238 957
-207 435 -516 783 -927 1045 -41 26 -77 47 -79 47 -2 0 -21 10 -42 23 -62 39
-273 134 -384 172 -91 32 -200 61 -349 94 -174 39 -540 51 -769 26z m-322
-1341 c4 -105 -28 -254 -76 -349 -47 -93 -82 -196 -82 -238 0 -28 3 -25 41 34
67 104 154 173 291 230 94 38 109 27 66 -48 -61 -105 -147 -198 -253 -270 -70
-47 -138 -109 -153 -138 -10 -20 -28 -395 -19 -395 3 0 11 17 18 38 6 20 25
56 40 80 16 24 29 46 29 51 0 18 137 144 192 177 86 50 186 94 214 94 37 0 30
-26 -35 -125 -72 -110 -160 -201 -255 -262 -82 -53 -139 -102 -178 -152 -26
-34 -27 -41 -27 -146 1 -103 14 -303 17 -261 2 25 66 138 113 201 42 56 133
126 224 172 177 90 209 84 143 -25 -40 -65 -141 -188 -188 -229 -19 -16 -74
-57 -121 -90 -47 -34 -105 -83 -129 -109 l-43 -47 6 -120 c3 -66 8 -121 10
-123 2 -3 66 19 141 48 l138 53 34 55 c19 31 52 108 75 173 45 131 87 210 164
307 74 92 102 120 120 120 31 0 14 -156 -32 -300 -28 -86 -87 -181 -148 -239
-31 -29 -54 -55 -52 -58 8 -8 310 97 329 114 31 28 74 113 108 213 51 150 93
226 194 345 59 70 65 75 90 75 17 0 18 -6 13 -67 -10 -102 -50 -250 -88 -323
-20 -40 -63 -95 -109 -142 -42 -43 -74 -78 -71 -78 3 0 34 9 70 20 36 11 115
33 175 50 60 17 115 35 123 42 22 18 72 122 88 183 26 101 97 218 194 323 54
58 70 36 53 -77 -24 -166 -82 -284 -181 -373 -29 -27 -49 -48 -45 -48 23 0 95
24 150 50 114 53 164 63 308 58 111 -4 142 -9 206 -33 82 -30 100 -41 100 -60
0 -31 -236 -73 -340 -61 -30 3 -122 8 -205 11 l-150 5 85 -32 c108 -42 158
-77 253 -178 103 -109 103 -130 0 -107 -92 22 -226 84 -289 136 -87 70 -149
110 -191 125 -35 12 -49 10 -168 -20 -72 -19 -143 -36 -160 -40 -76 -15 -73
-19 31 -40 138 -28 235 -86 360 -214 71 -72 104 -124 89 -139 -10 -10 -101 7
-159 30 -136 53 -190 82 -275 147 -108 84 -221 152 -250 152 -37 -1 -354 -104
-345 -113 4 -4 23 -7 43 -7 60 0 225 -63 283 -107 65 -50 139 -122 190 -186
70 -89 48 -102 -95 -57 -121 38 -222 89 -292 145 -90 73 -160 122 -214 149
l-53 27 -100 -36 c-168 -62 -188 -73 -188 -100 0 -18 -6 -25 -19 -25 -23 0
-26 16 -41 186 -6 71 -13 138 -15 149 -5 25 -122 143 -162 163 -15 8 -30 18
-33 21 -3 4 -22 17 -42 30 -81 49 -278 293 -278 344 0 17 5 19 36 14 57 -9
197 -83 276 -146 73 -58 123 -121 172 -216 l25 -50 1 177 0 177 -32 38 c-47
54 -92 92 -165 140 -79 52 -123 91 -188 168 -81 96 -135 181 -135 212 0 23 50
12 140 -31 93 -45 104 -52 168 -101 65 -49 128 -129 175 -220 l36 -70 1 140
c0 77 3 163 6 191 6 50 5 53 -35 97 -24 25 -82 73 -131 106 -99 68 -150 121
-222 230 -76 117 -58 130 85 62 144 -69 247 -172 297 -296 l20 -50 -6 185 c-7
207 0 262 47 366 46 103 130 219 154 211 5 -2 11 -35 13 -73z"/>
</g>
</svg>
