<?xml version="1.0" standalone="no"?>
<!DOCTYPE svg PUBLIC "-//W3C//DTD SVG 20010904//EN"
 "http://www.w3.org/TR/2001/REC-SVG-20010904/DTD/svg10.dtd">
<svg version="1.0" xmlns="http://www.w3.org/2000/svg"
 width="500.000000pt" height="500.000000pt" viewBox="0 0 500.000000 500.000000"
 preserveAspectRatio="xMidYMid meet">

<g transform="translate(0.000000,500.000000) scale(0.100000,-0.100000)"
fill="#499a09" stroke="none">
<path d="M2415 4984 c-114 -8 -294 -26 -345 -35 -166 -32 -345 -82 -475 -134
-22 -9 -49 -19 -60 -24 -73 -29 -307 -152 -386 -204 -206 -135 -341 -251 -527
-456 -80 -87 -223 -286 -278 -387 -108 -198 -143 -274 -200 -439 -198 -565
-176 -1241 58 -1780 38 -87 89 -192 115 -237 11 -18 39 -67 63 -108 25 -41 47
-77 50 -80 3 -3 27 -36 54 -73 202 -286 507 -553 831 -728 253 -136 565 -241
800 -269 55 -6 125 -16 155 -22 85 -15 434 -4 600 19 265 37 567 136 800 264
216 117 363 224 559 404 69 64 225 244 287 332 27 37 51 70 54 73 3 3 25 39
50 80 24 41 52 90 63 108 52 89 131 267 175 394 178 513 177 1112 -2 1623 -57
165 -92 241 -200 439 -55 101 -198 300 -278 387 -186 205 -321 321 -527 456
-79 52 -313 175 -386 204 -11 5 -38 15 -60 24 -130 52 -310 103 -475 133 -113
22 -414 42 -515 36z m571 -1263 c189 -19 356 -100 499 -245 104 -105 158 -193
206 -336 32 -92 33 -100 32 -255 0 -133 -4 -170 -21 -220 -37 -110 -60 -164
-81 -194 -12 -16 -21 -32 -21 -36 0 -23 -401 -445 -424 -445 -5 0 -275 266
-599 591 l-590 590 54 56 c212 216 380 373 402 373 4 0 24 11 45 25 58 38 208
87 292 95 107 10 106 10 206 1z m-568 -1314 l592 -592 -177 -176 c-181 -179
-220 -212 -308 -266 -252 -152 -601 -148 -862 9 -138 83 -243 198 -313 343
-50 105 -67 165 -81 288 -21 185 25 385 126 542 33 52 408 445 424 445 3 0
273 -267 599 -593z"/>
</g>
</svg>
