<?xml version="1.0" standalone="no"?>
<!DOCTYPE svg PUBLIC "-//W3C//DTD SVG 20010904//EN"
 "http://www.w3.org/TR/2001/REC-SVG-20010904/DTD/svg10.dtd">
<svg version="1.0" xmlns="http://www.w3.org/2000/svg"
 width="500.000000pt" height="500.000000pt" viewBox="0 0 500.000000 500.000000"
 preserveAspectRatio="xMidYMid meet">

<g transform="translate(0.000000,500.000000) scale(0.100000,-0.100000)"
fill="#499a09" stroke="none">
<path d="M2375 4984 c-418 -34 -707 -113 -1032 -284 -502 -263 -921 -717
-1138 -1230 -284 -673 -257 -1479 72 -2110 182 -349 420 -628 746 -876 53 -41
100 -74 103 -74 3 0 20 -11 37 -24 41 -30 229 -131 327 -174 210 -94 412 -151
670 -189 262 -38 705 -16 935 47 44 12 96 26 115 30 40 10 196 67 288 105 82
34 311 161 398 221 221 152 419 340 594 564 80 101 154 222 247 400 97 186
203 520 224 710 45 394 36 660 -33 955 -90 384 -243 696 -497 1013 -57 71
-271 289 -327 332 -10 9 -50 40 -89 71 -330 260 -780 446 -1200 493 -142 16
-361 26 -440 20z m1832 -1716 c46 -51 53 -89 27 -143 -33 -70 73 -65 -1513
-65 -1543 0 -1477 -2 -1515 51 -31 45 -13 142 31 168 12 7 507 10 1484 11
l1466 0 20 -22z m-3273 -29 c74 -87 -12 -209 -117 -165 -59 24 -84 96 -51 146
27 41 45 50 95 50 40 0 51 -4 73 -31z m3249 -635 c30 -6 67 -65 67 -106 0 -33
-36 -87 -66 -98 -34 -13 -2903 -14 -2938 0 -56 21 -74 122 -32 175 l24 30
1414 5 c1375 6 1472 5 1531 -6z m-3258 -35 c30 -27 35 -37 35 -76 0 -81 -72
-125 -154 -93 -28 10 -56 57 -56 92 0 32 35 87 63 98 42 17 75 11 112 -21z
m3264 -644 c30 -15 61 -69 61 -105 0 -28 -36 -87 -60 -100 -29 -16 -2911 -14
-2945 2 -49 22 -70 103 -44 162 27 59 -58 56 1517 56 1244 0 1447 -2 1471 -15z
m-3273 -27 c49 -23 59 -109 18 -157 -22 -26 -33 -31 -71 -31 -55 0 -78 12 -98
50 -21 40 -19 71 8 111 31 46 84 56 143 27z"/>
</g>
</svg>
