<?xml version="1.0" standalone="no"?>
<!DOCTYPE svg PUBLIC "-//W3C//DTD SVG 20010904//EN"
 "http://www.w3.org/TR/2001/REC-SVG-20010904/DTD/svg10.dtd">
<svg version="1.0" xmlns="http://www.w3.org/2000/svg"
 width="500.000000pt" height="500.000000pt" viewBox="0 0 500.000000 500.000000"
 preserveAspectRatio="xMidYMid meet">

<g transform="translate(0.000000,500.000000) scale(0.100000,-0.100000)"
fill="#499a09" stroke="none">
<path d="M2400 4983 c-227 -12 -493 -60 -670 -119 -396 -134 -760 -362 -1025
-643 -93 -99 -116 -126 -174 -201 -61 -81 -71 -95 -128 -180 -139 -210 -253
-476 -324 -755 -94 -371 -92 -837 6 -1210 164 -628 546 -1151 1095 -1499 164
-104 462 -236 633 -281 31 -8 83 -22 115 -30 141 -38 351 -60 572 -59 118 0
244 5 280 11 36 7 97 15 135 18 39 4 104 16 145 27 41 11 99 26 129 34 187 48
500 193 681 313 461 307 810 756 988 1273 41 116 90 309 102 402 78 557 5
1046 -227 1511 -136 274 -273 462 -492 678 -196 191 -375 320 -612 439 -246
123 -438 188 -699 236 -119 23 -410 42 -530 35z m-608 -1682 l33 -29 0 -754
c0 -701 -1 -756 -17 -781 -28 -42 -77 -49 -303 -45 -219 3 -245 10 -266 65 -6
16 -8 306 -7 775 l3 750 30 24 c30 24 32 24 262 24 l233 0 32 -29z m1979 0
l29 -29 0 -754 c0 -578 -3 -759 -13 -777 -21 -42 -65 -49 -282 -49 -217 0
-261 7 -282 49 -10 18 -13 199 -13 777 l0 754 29 29 29 29 237 0 237 0 29 -29z
m-2641 -846 l0 -525 -145 0 c-159 0 -197 10 -209 52 -10 39 -7 924 4 953 5 14
20 30 32 35 13 5 89 9 171 9 l147 1 0 -525z m3112 497 l23 -23 0 -475 0 -476
-30 -24 c-29 -23 -37 -24 -177 -24 l-148 0 0 526 0 525 155 -3 c145 -3 156 -4
177 -26z m-1142 -437 l0 -235 -585 0 -585 0 0 235 0 235 585 0 585 0 0 -235z"/>
</g>
</svg>
