<?xml version="1.0" encoding="UTF-8"?> <svg xmlns="http://www.w3.org/2000/svg" width="295" height="38" viewBox="0 0 295 38" fill="none"><path d="M33.0866 22.1361C34.0958 24.5204 36.2782 25.386 37.2837 25.7527C37.2837 25.7527 34.7023 27.5214 33.8655 27.5391C33.0287 27.5569 30.0833 25.3298 28.4145 23.8465C25.5763 21.324 23.6474 18.2213 22.914 16.4474C23.4056 17.8919 24.6599 20.462 26.7051 22.6992C29.08 25.297 31.9886 27.4345 33.0867 27.8492C32.7466 28.0113 29.022 28.7002 26.7051 28.4283C22.0447 27.8814 17.116 24.7126 15.082 20.0957C13.2108 15.8481 13.695 9.8309 13.656 8.02382C13.6171 6.21675 13.7177 5.31873 13.102 5.09933C12.6095 4.92381 12.775 4.58945 12.9193 4.44421C12.9193 4.44421 13.9426 3.7659 15.9485 3.26003C17.9545 2.75416 22.7539 1.6285 26.9826 5.26379C32.2684 9.8079 31.444 18.2551 33.0866 22.1361Z" fill="url(#paint0_radial_111_326)"></path><path d="M21.2204 29.1821C23.0639 30.1128 25.0995 29.7769 25.8868 29.4927C25.8868 29.4927 25.1654 31.808 24.6789 32.2392C24.1924 32.6705 22.2079 32.9233 20.4443 32.8676C17.4448 32.7728 14.0106 31.5447 12.6493 30.8435C13.6952 31.4676 16.508 32.691 18.6578 33.0762C21.4054 33.5686 23.4712 33.3098 24.3384 33.008C24.2216 33.2767 22.6694 35.1627 21.1547 36.1631C18.1079 38.1755 13.4243 38.5513 9.80725 36.7894C6.47945 35.1684 3.72892 31.4706 2.76176 30.4005C1.79461 29.3304 1.14683 28.4835 0.66744 28.6606C0.283925 28.8023 0.207278 28.5175 0.216895 28.3574C0.216895 28.3574 0.434146 27.6422 1.35829 26.329C2.28243 25.0159 4.81252 21.9879 9.21707 22.0548C14.7228 22.1386 18.916 28.0189 21.2204 29.1821Z" fill="url(#paint1_radial_111_326)"></path><path d="M43.8271 21.0757C43.8916 22.5805 44.844 23.7497 45.3121 24.1462C45.3121 24.1462 43.6414 24.4582 43.1869 24.3055C42.7325 24.1528 41.7658 23.0529 41.1647 21.9148C40.1424 19.979 39.6955 17.3582 39.6569 16.242C39.6314 17.1304 39.8568 19.3555 40.3845 20.8576C41.0588 22.7773 41.9724 23.9934 42.4807 24.4342C42.2649 24.4572 40.4852 24.1543 39.2914 23.5554C36.89 22.3506 34.6489 19.8723 34.481 16.9428C34.3265 14.2477 35.9301 10.7601 36.2724 9.76049C36.6147 8.76084 36.6514 8.58627 36.3637 8.34632C36.1336 8.15436 36.29 8.00291 36.3969 7.95118C36.3969 7.95118 37.3413 7.71602 38.5239 7.82762C39.7065 7.93922 42.4421 8.32518 43.99 11.1417C45.9249 14.6624 43.7464 19.1946 43.8271 21.0757Z" fill="url(#paint2_radial_111_326)"></path><path fill-rule="evenodd" clip-rule="evenodd" d="M265.782 23.6516C266.089 23.6516 266.624 23.7387 267.391 23.9117V27.2867C266.446 28.477 265.361 29.0727 264.137 29.0727C262.458 29.0727 261.621 28.3475 261.621 26.896C261.621 26.0185 262.009 25.2578 262.784 24.6151C263.558 23.9724 264.558 23.6516 265.782 23.6516ZM263.165 31.0271C265.166 31.0271 266.65 30.4062 267.621 29.1632C267.834 29.8242 268.184 30.2974 268.673 30.5838C269.162 30.8702 269.901 31.0145 270.888 31.0145V29.7761C270.172 29.3683 269.816 28.5514 269.816 27.3256V22.3216C269.816 20.3145 269.368 18.8515 268.47 17.9293C267.571 17.0093 266.132 16.5488 264.148 16.5488C263.409 16.5488 262.632 16.6851 261.82 16.9601C261.007 17.2327 260.371 17.5615 259.911 17.943L260.932 20.0154C261.75 19.1814 262.915 18.7644 264.429 18.7644C266.403 18.7644 267.391 19.894 267.391 22.1532C266.744 21.9263 266.165 21.8141 265.655 21.8141C263.774 21.8141 262.227 22.3021 261.014 23.2805C259.802 24.2577 259.196 25.4537 259.196 26.8708C259.196 28.0508 259.59 29.0406 260.377 29.8345C261.164 30.6296 262.093 31.0271 263.165 31.0271ZM257.69 19.1944C257.161 18.8209 256.63 18.6342 256.094 18.6342C255.234 18.6342 254.484 19.0374 253.841 19.8451C253.199 20.6528 252.877 21.6265 252.877 22.7653V30.7663H250.452V16.8092H252.877V19.0374C253.762 17.3786 255.076 16.5492 256.821 16.5492C257.255 16.5492 257.88 16.6271 258.697 16.784L257.69 19.1944ZM238.734 21.2664V28.5514C239.61 28.6384 240.283 28.682 240.752 28.682C242.352 28.682 243.52 28.3761 244.256 27.762C244.991 27.1503 245.359 26.1754 245.359 24.8373C245.359 23.5954 245.009 22.6778 244.306 22.0878C243.604 21.4967 242.431 21.2011 240.79 21.2011L238.734 21.2664ZM238.734 13.7603V19.2467C239.272 19.2982 239.934 19.3246 240.725 19.3246C243.143 19.3246 244.35 18.321 244.35 16.3139C244.35 14.5508 243.24 13.6698 241.019 13.6698C240.168 13.6698 239.406 13.6996 238.734 13.7603ZM241.516 30.7659H236.183V11.6741C238.454 11.5619 240.092 11.5046 241.095 11.5046C242.942 11.5046 244.371 11.9113 245.384 12.7235C246.397 13.5369 246.903 14.6986 246.903 16.2096C246.903 17.0952 246.579 17.904 245.933 18.6338C245.287 19.3635 244.572 19.8195 243.789 20.0016C245.269 20.3671 246.348 20.9708 247.025 21.814C247.7 22.656 248.039 23.8028 248.039 25.2531C248.039 26.9303 247.438 28.2696 246.234 29.2674C245.029 30.2664 243.457 30.7659 241.516 30.7659ZM272.216 29.9327L273.072 27.5865C274.425 28.4904 275.513 28.9418 276.339 28.9418C277.837 28.9418 278.586 28.2991 278.586 27.0137C278.586 26.0915 277.863 25.3022 276.416 24.6411C275.301 24.1199 274.55 23.7258 274.163 23.4554C273.776 23.1862 273.441 22.8803 273.154 22.5366C272.869 22.1941 272.657 21.8286 272.517 21.4414C272.377 21.0553 272.305 20.6406 272.305 20.1973C272.305 19.0505 272.713 18.1558 273.531 17.5131C274.347 16.8704 275.416 16.5485 276.735 16.5485C277.73 16.5485 278.986 16.8704 280.5 17.5131L279.812 19.8066C278.849 19.0253 277.884 18.6335 276.914 18.6335C276.334 18.6335 275.847 18.7733 275.452 19.0505C275.056 19.3289 274.858 19.6806 274.858 20.1068C274.858 21.0015 275.356 21.6786 276.352 22.1391L278.088 22.9468C279.152 23.4417 279.926 24.0076 280.412 24.6411C280.895 25.2758 281.138 26.0709 281.138 27.0263C281.138 28.2773 280.708 29.2568 279.85 29.9648C278.99 30.6728 277.799 31.0268 276.276 31.0268C274.837 31.0268 273.484 30.6625 272.216 29.9327ZM286.736 12.1158C286.442 11.8157 286.086 11.6656 285.67 11.6656C285.253 11.6656 284.899 11.8134 284.611 12.109C284.321 12.4045 284.177 12.7643 284.177 13.1904C284.177 13.6166 284.323 13.9798 284.616 14.2788C284.91 14.5778 285.262 14.7279 285.67 14.7279C286.086 14.7279 286.442 14.5778 286.736 14.2788C287.029 13.9798 287.177 13.6166 287.177 13.1904C287.177 12.7734 287.029 12.4148 286.736 12.1158ZM284.343 18.8945V30.7665H286.768V16.8094H282.466V18.8945H284.343ZM290.291 26.8177V11.6612H292.716V26.4007C292.716 27.1488 292.926 27.7365 293.348 28.1672C293.769 28.5968 294.32 28.8111 295 28.8111V31.0267C291.861 31.0267 290.291 29.6245 290.291 26.8177ZM220.622 29.0065C218.196 29.0065 216.984 27.2572 216.984 23.755C216.984 22.1397 217.314 20.8715 217.973 19.9504C218.632 19.0294 219.515 18.5688 220.622 18.5688C223.039 18.5688 224.247 20.2976 224.247 23.755C224.247 25.3795 223.926 26.6615 223.282 27.5997C222.64 28.538 221.753 29.0065 220.622 29.0065ZM216.135 18.5356C214.998 19.8611 214.431 21.6013 214.431 23.755C214.431 25.9798 214.976 27.7475 216.065 29.0592C217.153 30.371 218.673 31.0274 220.622 31.0274C222.527 31.0274 224.034 30.3778 225.14 29.0787C226.245 27.7807 226.8 26.005 226.8 23.755C226.8 21.497 226.259 19.7305 225.178 18.4577C224.098 17.1849 222.579 16.5491 220.622 16.5491C218.767 16.5491 217.271 17.2113 216.135 18.5356ZM207.437 18.6334C208.5 18.6334 209.338 19.1031 209.952 20.0414V27.7823C209.815 28.0607 209.478 28.323 208.943 28.5705C208.406 28.8191 207.948 28.9428 207.564 28.9428C204.569 28.9428 203.071 27.261 203.071 23.8987C203.071 22.3704 203.474 21.1102 204.277 20.1193C205.081 19.1294 206.135 18.6334 207.437 18.6334ZM209.952 29.7241V30.754H212.376V11.6612H209.952V17.5657C209.219 16.8886 208.147 16.5495 206.735 16.5495C205.041 16.5495 203.582 17.2896 202.355 18.7709C201.132 20.2522 200.518 22.0393 200.518 24.1335C200.518 26.2185 201.049 27.8865 202.114 29.1376C203.178 30.3886 204.565 31.0152 206.276 31.0152C207.882 31.0152 209.109 30.5845 209.952 29.7241Z" fill="#00652C"></path><path fill-rule="evenodd" clip-rule="evenodd" d="M150.38 18.7648H151.962V26.6879C151.962 27.9389 152.334 28.9746 153.078 29.7948C153.823 30.6162 154.735 31.0275 155.817 31.0275C157.017 31.0275 158.117 30.8969 159.123 30.6369L158.765 28.4602C158.102 28.781 157.459 28.9425 156.838 28.9425C155.978 28.9425 155.355 28.6939 154.968 28.199C154.581 27.7041 154.386 26.8701 154.386 25.697V18.7648H158.14V16.8093H154.386V12.9394L151.962 13.8902V16.8093H150.38V18.7648ZM145.376 23.9118C144.609 23.7388 144.073 23.6517 143.767 23.6517C142.543 23.6517 141.542 23.9725 140.767 24.6152C139.994 25.2579 139.606 26.0186 139.606 26.8961C139.606 28.3476 140.443 29.0728 142.121 29.0728C143.346 29.0728 144.431 28.4771 145.376 27.2868V23.9118ZM145.606 29.1633C144.635 30.4063 143.151 31.0272 141.15 31.0272C140.078 31.0272 139.149 30.6297 138.362 29.8346C137.575 29.0407 137.181 28.0509 137.181 26.8709C137.181 25.4538 137.787 24.2577 138.999 23.2805C140.212 22.3022 141.759 21.8141 143.64 21.8141C144.15 21.8141 144.728 21.9264 145.376 22.1532C145.376 19.8941 144.388 18.7645 142.413 18.7645C140.9 18.7645 139.734 19.1815 138.917 20.0155L137.896 17.9431C138.356 17.5616 138.991 17.2328 139.805 16.9602C140.617 16.6852 141.394 16.5489 142.133 16.5489C144.116 16.5489 145.556 17.0094 146.454 17.9294C147.352 18.8516 147.8 20.3145 147.8 22.3217V27.3257C147.8 28.5515 148.157 29.3683 148.873 29.7762V31.0146C147.886 31.0146 147.147 30.8703 146.658 30.5839C146.169 30.2974 145.818 29.8243 145.606 29.1633ZM134.002 31.0271L124.34 17.07V30.7659H121.916V11.6742H122.936L132.343 24.8763V11.6742H134.768V31.0271H134.002ZM163.438 11.636C163.854 11.636 164.21 11.7861 164.504 12.0862C164.797 12.3853 164.945 12.7438 164.945 13.1608C164.945 13.587 164.797 13.9502 164.504 14.2492C164.21 14.5482 163.854 14.6983 163.438 14.6983C163.03 14.6983 162.678 14.5482 162.385 14.2492C162.092 13.9502 161.945 13.587 161.945 13.1608C161.945 12.7347 162.089 12.3749 162.379 12.0794C162.667 11.7838 163.021 11.636 163.438 11.636ZM162.111 30.7667V18.8947H160.235V16.8096H164.536V30.7667H162.111ZM172.156 31.0271H172.793L178.793 16.7699H176.252L172.564 26.5443L168.951 16.7699H166.297L172.156 31.0271ZM187.639 23.9117C186.872 23.7387 186.337 23.6516 186.03 23.6516C184.806 23.6516 183.806 23.9724 183.032 24.6151C182.257 25.2578 181.869 26.0185 181.869 26.896C181.869 28.3475 182.707 29.0727 184.385 29.0727C185.609 29.0727 186.694 28.477 187.639 27.2867V23.9117ZM187.869 29.1632C186.898 30.4062 185.414 31.0271 183.413 31.0271C182.342 31.0271 181.412 30.6296 180.625 29.8345C179.838 29.0406 179.444 28.0508 179.444 26.8708C179.444 25.4537 180.05 24.2577 181.262 23.2804C182.475 22.3021 184.022 21.8141 185.903 21.8141C186.413 21.8141 186.992 21.9263 187.639 22.1532C187.639 19.894 186.651 18.7644 184.677 18.7644C183.163 18.7644 181.998 19.1814 181.18 20.0154L180.159 17.943C180.619 17.5615 181.255 17.2327 182.068 16.9601C182.88 16.6851 183.657 16.5488 184.396 16.5488C186.38 16.5488 187.819 17.0093 188.718 17.9293C189.616 18.8515 190.064 20.3144 190.064 22.3216V27.3256C190.064 28.5514 190.421 29.3683 191.136 29.7761V31.0145C190.149 31.0145 189.41 30.8702 188.921 30.5838C188.432 30.2974 188.082 29.8242 187.869 29.1632ZM80.0611 23.7551C80.0611 27.2573 81.2729 29.0067 83.6988 29.0067C84.8298 29.0067 85.7174 28.5381 86.3592 27.5998C87.0021 26.6616 87.323 25.3796 87.323 23.7551C87.323 20.2977 86.1157 18.5689 83.6988 18.5689C82.5913 18.5689 81.7083 19.0295 81.0496 19.9505C80.3899 20.8716 80.0611 22.1398 80.0611 23.7551ZM77.5084 23.7551C77.5084 21.6014 78.0751 19.8612 79.2117 18.5357C80.3472 17.2114 81.8429 16.5492 83.6988 16.5492C85.6557 16.5492 87.1749 17.185 88.2555 18.4578C89.336 19.7306 89.8768 21.4971 89.8768 23.7551C89.8768 26.0051 89.3225 27.7808 88.2173 29.0788C87.111 30.378 85.6041 31.0275 83.6988 31.0275C81.7498 31.0275 80.2305 30.3711 79.1421 29.0594C78.0526 27.7476 77.5084 25.9799 77.5084 23.7551ZM71.4065 11.6613V26.8178C71.4065 29.6246 72.9763 31.0268 76.1158 31.0268V28.8112C75.4347 28.8112 74.8849 28.597 74.463 28.1674C74.0422 27.7366 73.8313 27.1489 73.8313 26.4008V11.6613H71.4065ZM59.4692 19.3245V14.0203H68.4681V11.6752H56.9177V30.7669H59.4692V21.5401H66.0433V19.3245H59.4692ZM97.7394 18.6343C98.2757 18.6343 98.8065 18.821 99.335 19.1945L100.343 16.7841C99.5257 16.6272 98.9007 16.5493 98.4665 16.5493C96.7217 16.5493 95.4078 17.3787 94.5225 19.0375V16.8093H92.0977V30.7664H94.5225V22.7654C94.5225 21.6266 94.8445 20.6529 95.4863 19.8452C96.1293 19.0375 96.8799 18.6343 97.7394 18.6343ZM109.036 23.9118C108.27 23.7388 107.733 23.6517 107.427 23.6517C106.203 23.6517 105.202 23.9725 104.428 24.6152C103.653 25.2579 103.266 26.0186 103.266 26.8961C103.266 28.3476 104.103 29.0728 105.781 29.0728C107.006 29.0728 108.091 28.4771 109.036 27.2868V23.9118ZM109.265 29.1633C108.295 30.4063 106.81 31.0272 104.81 31.0272C103.738 31.0272 102.808 30.6297 102.022 29.8346C101.234 29.0407 100.842 28.0509 100.842 26.8709C100.842 25.4538 101.447 24.2578 102.659 23.2806C103.872 22.3022 105.419 21.8142 107.3 21.8142C107.811 21.8142 108.388 21.9264 109.036 22.1533C109.036 19.8941 108.048 18.7645 106.074 18.7645C104.56 18.7645 103.394 19.1815 102.576 20.0155L101.556 17.9431C102.015 17.5616 102.651 17.2328 103.465 16.9602C104.276 16.6852 105.054 16.5489 105.793 16.5489C107.776 16.5489 109.217 17.0094 110.114 17.9294C111.012 18.8516 111.461 20.3145 111.461 22.3217V27.3257C111.461 28.5515 111.817 29.3684 112.533 29.7762V31.0146C111.546 31.0146 110.808 30.8703 110.318 30.5839C109.829 30.2975 109.478 29.8243 109.265 29.1633Z" fill="#00652C"></path><defs><radialGradient id="paint0_radial_111_326" cx="0" cy="0" r="1" gradientUnits="userSpaceOnUse" gradientTransform="translate(24.8573 15.4865) rotate(46.6207) scale(17.6556 15.5844)"><stop stop-color="#00B013"></stop><stop offset="1" stop-color="#00652C"></stop></radialGradient><radialGradient id="paint1_radial_111_326" cx="0" cy="0" r="1" gradientUnits="userSpaceOnUse" gradientTransform="translate(13.0515 30.0269) rotate(46.2464) scale(11.0382 17.6064)"><stop stop-color="#FFD600"></stop><stop offset="1" stop-color="#FFA61D"></stop></radialGradient><radialGradient id="paint2_radial_111_326" cx="0" cy="0" r="1" gradientUnits="userSpaceOnUse" gradientTransform="translate(40.889 16.1013) rotate(67.5841) scale(10.2415 9.29714)"><stop stop-color="#0074C9"></stop><stop offset="1" stop-color="#003F92"></stop></radialGradient></defs></svg> 