<?xml version="1.0" encoding="utf-8"?>
<!-- Generator: Adobe Illustrator 25.2.3, SVG Export Plug-In . SVG Version: 6.00 Build 0)  -->
<svg version="1.1" id="Camada_1" xmlns="http://www.w3.org/2000/svg" xmlns:xlink="http://www.w3.org/1999/xlink" x="0px" y="0px"
	 viewBox="0 0 1241 349" style="enable-background:new 0 0 1241 349;" xml:space="preserve">
<style type="text/css">
	.st0{fill:#7C7C7B;}
	.st1{fill:#C90C0F;}
	.st2{fill:none;}
</style>
<polygon class="st0" points="270.06,298.54 270.06,307.19 284.9,307.19 284.9,349.88 294.75,349.88 294.75,307.24 309.98,307.24 
	309.98,298.54 "/>
<rect x="361.11" y="298.54" class="st0" width="9.87" height="51.34"/>
<polygon class="st0" points="422.17,298.54 422.17,307.19 437,307.19 437,349.88 446.87,349.88 446.87,307.24 462.09,307.24 
	462.09,298.54 "/>
<path class="st0" d="M522.52,306.05l8.87,26.66h-17.6L522.52,306.05z M515.07,298.54L498,349.88h10.3l3.21-9.85h22.15l3.27,9.85
	h10.11l-17.32-51.34H515.07z"/>
<path class="st0" d="M645.34,298.54v51.34H628.8l-14.7-28.16c-0.81-1.55-2.5-5.26-5.09-11.06l-1.62-3.69h-0.37l0.11,3.4
	c0.15,3.37,0.23,6.73,0.23,10.08v29.43h-9.67v-51.34h16.45l13.38,26.02c1.41,2.8,3.43,6.99,6.07,12.58l1.94,4.21h0.34l-0.12-3.3
	c-0.12-3.31-0.2-6.63-0.2-9.93v-29.58H645.34z"/>
<rect x="696.48" y="298.54" class="st0" width="9.87" height="51.34"/>
<path class="st0" d="M790.38,298.54h9.86v34.17c0,4.76-0.48,8.2-1.43,10.26c-1.46,3.21-4.13,5.35-8.03,6.48
	c-2.11,0.58-5.83,0.9-11.17,0.9c-4.15,0-7.28-0.12-9.38-0.38c-2.09-0.23-3.88-0.66-5.37-1.31c-3.18-1.38-5.27-3.48-6.3-6.4
	c-0.69-1.99-1.06-4.97-1.06-8.99v-34.72h9.86v34.72c0,2.86,0.28,4.79,0.86,5.85c0.7,1.22,2.2,2.07,4.51,2.47
	c1.24,0.2,3.32,0.29,6.24,0.29c3.94,0,6.68-0.29,8.2-0.84c1.78-0.64,2.8-2.37,3.1-5.22c0.06-0.73,0.1-1.72,0.1-2.92V298.54z"/>
<path class="st0" d="M911.4,298.54v51.34h-9.74V321.9c0-2.66,0.15-6.48,0.39-11.43l0.18-3.81h-0.29l-1.17,3.59
	c-1.73,5.38-2.93,8.93-3.57,10.67l-11.29,28.96h-8.87l-11.4-28.74c-0.7-1.79-1.91-5.35-3.66-10.67l-1.16-3.54h-0.29l0.19,3.73
	c0.28,5.02,0.42,8.75,0.42,11.24v27.98h-9.76v-51.34h15.89l9.17,23.79c0.72,1.92,1.94,5.47,3.62,10.67l1.16,3.53h0.33l1.11-3.53
	c1.59-5.03,2.73-8.58,3.52-10.61l9.04-23.85H911.4z"/>
<path d="M1219.32,18.56c12.19,0,21.68,9.72,21.68,21.82c0,12.38-9.48,21.94-21.81,21.94c-12.2,0-21.95-9.57-21.95-21.94
	c0-12.1,9.75-21.82,21.95-21.82H1219.32z M1219.06,22.96c-9.35,0-16.36,7.84-16.36,17.42c0,9.71,7.01,17.43,16.63,17.43
	c9.35,0.13,16.22-7.71,16.22-17.43c0-9.58-6.88-17.42-16.36-17.42H1219.06z M1215.81,51.69h-4.95V30.01c1.96-0.4,4.68-0.8,8.19-0.8
	c4.03,0,5.83,0.68,7.4,1.72c1.16,0.96,2.09,2.67,2.09,4.66c0,2.54-1.83,4.4-4.42,5.19v0.28c2.06,0.66,3.24,2.39,3.89,5.3
	c0.66,3.33,1.03,4.66,1.56,5.33h-5.32c-0.65-0.79-1.04-2.66-1.7-5.18c-0.38-2.4-1.69-3.45-4.41-3.45h-2.33V51.69z M1215.95,39.45
	h2.32c2.74,0,4.94-0.93,4.94-3.19c0-2-1.43-3.32-4.55-3.32c-1.3,0-2.2,0.13-2.71,0.26V39.45z"/>
<path d="M218.99,18.56l-39.23,67.95l-39.24-67.95H64.68C28.97,18.56,0,47.52,0,83.24v163.83h106.97l0.01-69.09l36.92,69.09h71.71
	l36.94-69.09v69.09h106.95V18.56H218.99z"/>
<polygon class="st1" points="219.66,-1.35 179.76,67.76 139.85,-1.35 "/>
<path d="M648.2,18.56h-69.66c-8.96,0-17.5,1.82-25.26,5.1c-7.76,3.29-14.76,8.04-20.63,13.91c-5.87,5.87-18.86,28.63-18.86,28.63
	L410.98,247.07h140.53l39.22-67.94l39.23,67.94h140.53L648.2,18.56z"/>
<polygon class="st1" points="550.83,266.99 590.73,197.88 630.63,266.99 "/>
<polygon class="st1" points="1041.61,-1.35 1001.71,67.76 961.81,-1.35 "/>
<path d="M1181.46,247.07l-81.8-120.75l81.8-107.75h-140.52l-39.23,67.95l-39.23-67.95H821.95l85.8,107.75l-85.8,120.75h140.53
	l39.23-67.94l17.96,31.16c0,0,7.73,12.68,12.82,17.77c5.88,5.87,12.86,10.63,20.63,13.91c7.76,3.29,16.3,5.1,25.26,5.1H1181.46z"/>
<rect x="0" y="-1.35" class="st2" width="1241" height="351.7"/>
<rect x="0" y="-1.35" class="st2" width="1241" height="351.7"/>
</svg>
